<svg width="263" height="96" viewBox="0 0 263 96" fill="none" xmlns="http://www.w3.org/2000/svg">
<path fill-rule="evenodd" clip-rule="evenodd" d="M49 35C38.2787 35 29 43.785 29 54.5063V56C29 74.8562 29 84.2843 23.1421 90.1421C18.5589 94.7254 11.7901 95.7226 0.0300042 95.9396C0.0135582 95.94 0 95.9534 0 95.9698V95.9698C0 95.9865 0.0135092 96 0.0301735 96H215C231.802 96 240.202 96 246.62 92.7302C252.265 89.854 256.854 85.2646 259.73 79.6197C263 73.2024 263 64.8016 263 48V0.00231743C263 0.00103462 262.999 0 262.998 0V0C262.996 0 262.995 0.00107001 262.995 0.00235016C262.95 15.5723 262.457 23.8269 257.142 29.1421C251.284 35 241.856 35 223 35H49V35Z" fill="#EFEFEF"/>
</svg>
