<svg width="968" height="78" viewBox="0 0 968 78" fill="none" xmlns="http://www.w3.org/2000/svg">
<path fill-rule="evenodd" clip-rule="evenodd" d="M967.999 77.9975C967.999 77.9975 968 77.9981 968 77.9988C968 77.9995 967.999 78 967.999 78H0.0256348C0.0114746 78 0 77.9885 0 77.9744C0 77.9604 0.0115356 77.9489 0.0255737 77.9487C10.9152 77.7843 17.4497 77.0919 22.6586 74.1748C27.4858 71.4714 31.4715 67.4857 34.1749 62.6585C38 55.8283 38 46.7188 38 28.4999C38 12.7598 50.7598 0 66.4999 0H894.5C910.24 0 923 12.7599 923 28.5C923 46.7189 923 55.8284 926.825 62.6586C929.528 67.4858 933.514 71.4715 938.341 74.1749C944.584 77.6711 952.732 77.9717 967.999 77.9975Z" fill="url(#paint0_linear_144_74)"/>
<defs>
<linearGradient id="paint0_linear_144_74" x1="480.5" y1="78" x2="480.5" y2="-457" gradientUnits="userSpaceOnUse">
<stop stop-color="#EFEFEF"/>
<stop offset="1" stop-color="#EFEFEF" stop-opacity="0"/>
</linearGradient>
</defs>
</svg>
