<?xml version="1.0" standalone="no"?>
<!DOCTYPE svg PUBLIC "-//W3C//DTD SVG 20010904//EN"
 "http://www.w3.org/TR/2001/REC-SVG-20010904/DTD/svg10.dtd">
<svg version="1.0" xmlns="http://www.w3.org/2000/svg"
 width="576.000000pt" height="576.000000pt" viewBox="0 0 576.000000 576.000000"
 preserveAspectRatio="xMidYMid meet">
<metadata>
Created by potrace 1.14, written by Peter Selinger 2001-2017
</metadata>
<g transform="translate(0.000000,576.000000) scale(0.100000,-0.100000)"
fill="#000000" stroke="none">
<path d="M201 5442 c-71 -28 -131 -84 -169 -157 l-27 -50 0 -2385 0 -2385 26
-55 c33 -69 85 -121 157 -156 l57 -28 560 0 560 -1 2 2621 1 2622 -553 -1
-553 0 -61 -25z"/>
<path d="M1829 5461 c-1 -3 -2 -311 -3 -683 l-1 -678 1822 0 1823 0 0 28 c4
223 -1 1067 -6 1089 -23 97 -90 178 -183 222 l-56 26 -1697 1 c-934 1 -1699
-1 -1699 -5z"/>
<path d="M1831 3640 c-4 -3 -7 -772 -6 -1710 l0 -1705 683 0 682 0 1 45 c3
310 -2 3364 -6 3369 -8 7 -1344 8 -1354 1z"/>
<path d="M3650 3585 c-1 -72 -1 -3323 0 -3345 0 -14 89 -15 783 -14 559 0 790
4 810 12 15 6 27 9 27 6 0 -3 13 4 29 15 16 12 32 21 35 21 4 0 23 18 44 39
42 44 75 105 89 161 2 8 3 313 4 677 l0 663 47 1 c68 0 111 19 146 62 30 38
31 41 33 159 2 113 1 121 -23 158 -32 48 -83 74 -149 75 l-50 1 0 682 c0 375
-2 683 -5 683 -3 1 -413 2 -913 3 l-907 1 0 -60z"/>
</g>
</svg>
