<svg width="263" height="96" viewBox="0 0 263 96" fill="none" xmlns="http://www.w3.org/2000/svg">
<path fill-rule="evenodd" clip-rule="evenodd" d="M214 35C224.721 35 234 43.785 234 54.5063V56C234 74.8562 234 84.2843 239.858 90.1421C244.441 94.7254 251.21 95.7226 262.97 95.9396C262.986 95.94 263 95.9534 263 95.9698V95.9698C263 95.9865 262.986 96 262.97 96H48C31.1984 96 22.7976 96 16.3803 92.7302C10.7354 89.854 6.14601 85.2646 3.2698 79.6197C0 73.2024 0 64.8016 0 48V0.00231743C0 0.00103462 0.00103992 0 0.00232273 0V0C0.00360288 0 0.0046418 0.00107001 0.00464555 0.00235016C0.050251 15.5723 0.542656 23.8269 5.85785 29.1421C11.7157 35 21.1438 35 40 35H214V35Z" fill="#EFEFEF"/>
</svg>
