<svg width="40" height="28" viewBox="0 0 40 28" fill="none" xmlns="http://www.w3.org/2000/svg">
<path d="M34 7H28.75V0H0.75V22.75H4.25C4.25 25.655 6.595 28 9.5 28C12.405 28 14.75 25.655 14.75 22.75H25.25C25.25 25.655 27.595 28 30.5 28C33.405 28 35.75 25.655 35.75 22.75H39.25V14L34 7ZM9.5 25.375C8.0475 25.375 6.875 24.2025 6.875 22.75C6.875 21.2975 8.0475 20.125 9.5 20.125C10.9525 20.125 12.125 21.2975 12.125 22.75C12.125 24.2025 10.9525 25.375 9.5 25.375ZM25.25 5.25H21.75V17.5H18.25V5.25H14.75V17.5H11.25V5.25H7.75V17.5H4.25V3.5H25.25V5.25ZM30.5 25.375C29.0475 25.375 27.875 24.2025 27.875 22.75C27.875 21.2975 29.0475 20.125 30.5 20.125C31.9525 20.125 33.125 21.2975 33.125 22.75C33.125 24.2025 31.9525 25.375 30.5 25.375ZM28.75 14V9.625H33.125L36.555 14H28.75Z" fill="#929292"/>
</svg>
