<svg width="34" height="38" viewBox="0 0 34 38" fill="none" xmlns="http://www.w3.org/2000/svg">
<path d="M26.6635 16.771C26.5272 16.661 26.3573 16.601 26.1821 16.601C26.0069 16.601 25.8369 16.661 25.7006 16.771L18.8159 22.3156C18.7276 22.3868 18.6563 22.477 18.6075 22.5794C18.5587 22.6818 18.5335 22.7939 18.5338 22.9074V37.0908C18.5338 37.2965 18.6155 37.4939 18.761 37.6394C18.9065 37.7849 19.1039 37.8666 19.3097 37.8666H23.8913C24.097 37.8666 24.2944 37.7849 24.4399 37.6394C24.5854 37.4939 24.6671 37.2965 24.6671 37.0908V31.7333H27.7338V37.0908C27.7338 37.2965 27.8155 37.4939 27.961 37.6394C28.1065 37.7849 28.3039 37.8666 28.5097 37.8666H33.0913C33.297 37.8666 33.4944 37.7849 33.6399 37.6394C33.7854 37.4939 33.8671 37.2965 33.8671 37.0908V22.9013C33.8693 22.7838 33.8444 22.6674 33.7944 22.5611C33.7445 22.4547 33.6707 22.3613 33.5789 22.288L26.6635 16.771ZM24.6671 28.6666H21.6005V25.6H24.6671V28.6666ZM30.8005 28.6666H27.7338V25.6H30.8005V28.6666ZM11.5111 0.499305C11.4406 0.393032 11.3449 0.305856 11.2326 0.245551C11.1202 0.185246 10.9947 0.153687 10.8671 0.153687C10.7396 0.153687 10.6141 0.185246 10.5017 0.245551C10.3893 0.305856 10.2936 0.393032 10.2231 0.499305L0.262595 13.137C0.17819 13.2643 0.133371 13.4137 0.133795 13.5664V37.0908C0.133392 37.1923 0.152981 37.2928 0.191446 37.3867C0.22991 37.4807 0.286496 37.5661 0.357972 37.6381C0.429449 37.7102 0.514416 37.7674 0.608023 37.8066C0.70163 37.8458 0.802043 37.8662 0.903528 37.8666H8.57019C8.77356 37.8642 8.96776 37.7817 9.11071 37.6371C9.25365 37.4924 9.33381 37.2972 9.33379 37.0938V31.7333H12.4005V37.0938C12.4005 37.2988 12.4819 37.4954 12.6268 37.6403C12.7717 37.7852 12.9683 37.8666 13.1733 37.8666H15.4671V19.4666C15.467 19.2363 15.5188 19.0089 15.6186 18.8013C15.7184 18.5937 15.8637 18.4113 16.0437 18.2676L21.6005 13.3333C21.6005 13.18 11.5111 0.499305 11.5111 0.499305ZM6.26713 25.6H3.20046V22.5333H6.26713V25.6ZM6.26713 16.4H3.20046V13.3333H6.26713V16.4ZM12.4005 25.6H9.33379V22.5333H12.4005V25.6ZM12.4005 16.4H9.33379V13.3333H12.4005V16.4Z" fill="#929292"/>
</svg>
