<svg width="33" height="36" viewBox="0 0 33 36" fill="none" xmlns="http://www.w3.org/2000/svg">
<path fill-rule="evenodd" clip-rule="evenodd" d="M24.886 0.927518C19.3629 -0.309172 13.6354 -0.309172 8.11233 0.927518L7.51722 1.0594C5.96365 1.40733 4.53677 2.17987 3.39511 3.29118C2.25344 4.4025 1.44168 5.80909 1.05001 7.3547C-0.350002 12.8807 -0.350002 18.6695 1.05001 24.1955C1.42353 25.6695 2.1795 27.0185 3.24126 28.1055C4.30303 29.1925 5.63285 29.979 7.09591 30.3853L7.91221 35.2668C7.93827 35.4218 8.00533 35.567 8.10642 35.6872C8.20752 35.8074 8.33894 35.8983 8.487 35.9504C8.63506 36.0024 8.79435 36.0138 8.94829 35.9832C9.10222 35.9527 9.24517 35.8814 9.36224 35.7767L14.1565 31.4808C17.7554 31.7008 21.3673 31.4125 24.886 30.6244L25.4829 30.4925C27.0365 30.1446 28.4633 29.3721 29.605 28.2608C30.7467 27.1495 31.5584 25.7429 31.9501 24.1973C33.35 18.6712 33.35 12.8825 31.9501 7.35646C31.5583 5.81062 30.7463 4.40388 29.6043 3.29254C28.4623 2.18121 27.035 1.4088 25.4811 1.06116L24.886 0.927518ZM9.59397 7.21226C9.2677 7.16469 8.93502 7.23047 8.65127 7.39866H8.62669C7.96838 7.78552 7.37503 8.27262 6.86945 8.84587C6.44813 9.33297 6.21992 9.82534 6.16023 10.3001C6.12512 10.5815 6.1497 10.8663 6.23221 11.1354L6.2638 11.153C6.73779 12.5474 7.35572 13.8891 8.11058 15.1517C9.08391 16.9251 10.2817 18.5652 11.6742 20.0315L11.7164 20.0912L11.7831 20.1405L11.8234 20.188L11.8726 20.2302C13.3415 21.6293 14.9826 22.8348 16.7564 23.8174C18.7839 24.9235 20.0145 25.4458 20.7536 25.6638V25.6744C20.9695 25.7412 21.1661 25.7711 21.3645 25.7711C21.9939 25.7245 22.5897 25.4682 23.0568 25.0431C23.6273 24.5366 24.1101 23.9405 24.4858 23.2776V23.2653C24.8386 22.597 24.7192 21.9675 24.2102 21.5402C23.1876 20.6452 22.0818 19.8503 20.9081 19.1663C20.1216 18.739 19.3229 18.9975 18.9999 19.4301L18.31 20.3023C17.9554 20.7348 17.3128 20.675 17.3128 20.675L17.2953 20.6856C12.5011 19.46 11.2213 14.5978 11.2213 14.5978C11.2213 14.5978 11.1616 13.9366 11.6058 13.599L12.4695 12.9026C12.8837 12.565 13.1716 11.7667 12.7275 10.9789C12.0492 9.80206 11.2572 8.69478 10.3629 7.67298C10.1678 7.4325 9.89427 7.26872 9.59045 7.2105L9.59397 7.21226ZM17.6938 5.09859C17.461 5.09859 17.2377 5.19122 17.0731 5.35611C16.9085 5.521 16.816 5.74464 16.816 5.97782C16.816 6.21101 16.9085 6.43464 17.0731 6.59953C17.2377 6.76442 17.461 6.85705 17.6938 6.85705C19.9145 6.85705 21.7577 7.5833 23.2166 8.976C23.9661 9.73741 24.5507 10.6395 24.9334 11.6278C25.3179 12.6178 25.4934 13.6746 25.4478 14.7332C25.4429 14.8487 25.4608 14.964 25.5005 15.0725C25.5401 15.181 25.6007 15.2807 25.6788 15.3657C25.8365 15.5375 26.0559 15.6396 26.2887 15.6494C26.5214 15.6592 26.7486 15.5759 26.9201 15.418C27.0916 15.26 27.1935 15.0402 27.2033 14.8071C27.2577 13.5049 27.0419 12.2056 26.5695 10.9912C26.0951 9.77106 25.3757 8.66144 24.4559 7.73101L24.4384 7.71342C22.6285 5.98134 20.3376 5.09859 17.6938 5.09859ZM17.6341 7.9895C17.4013 7.9895 17.178 8.08214 17.0134 8.24702C16.8488 8.41191 16.7564 8.63555 16.7564 8.86873C16.7564 9.10192 16.8488 9.32556 17.0134 9.49044C17.178 9.65533 17.4013 9.74796 17.6341 9.74796H17.6639C19.2649 9.86227 20.4306 10.3968 21.2469 11.2743C22.0843 12.1782 22.5179 13.3018 22.4845 14.691C22.4792 14.9242 22.5665 15.15 22.7273 15.3186C22.8881 15.4873 23.1093 15.5851 23.3421 15.5905C23.5749 15.5958 23.8002 15.5083 23.9686 15.3472C24.137 15.1861 24.2346 14.9646 24.24 14.7314C24.2821 12.9079 23.6958 11.3341 22.5337 10.0786V10.075C21.3452 8.7984 19.7144 8.12315 17.7517 7.99126L17.7219 7.98774L17.6341 7.9895ZM17.6007 10.9349C17.4833 10.9245 17.3649 10.938 17.2528 10.9744C17.1406 11.0109 17.0369 11.0696 16.9479 11.1471C16.8589 11.2245 16.7864 11.3192 16.7347 11.4254C16.683 11.5315 16.6532 11.647 16.647 11.765C16.6409 11.883 16.6586 12.001 16.699 12.1119C16.7393 12.2229 16.8017 12.3246 16.8821 12.4109C16.9626 12.4972 17.0597 12.5664 17.1675 12.6144C17.2752 12.6623 17.3916 12.688 17.5095 12.6899C18.2433 12.7286 18.712 12.9501 19.0069 13.2473C19.3036 13.5462 19.5248 14.0263 19.5651 14.7772C19.5673 14.8952 19.5932 15.0115 19.6412 15.1193C19.6893 15.227 19.7585 15.324 19.8447 15.4044C19.9309 15.4848 20.0324 15.547 20.1432 15.5873C20.2539 15.6275 20.3716 15.6451 20.4893 15.6388C20.6069 15.6326 20.7221 15.6026 20.828 15.5508C20.9338 15.499 21.0282 15.4264 21.1054 15.3373C21.1827 15.2482 21.2412 15.1445 21.2776 15.0322C21.314 14.92 21.3274 14.8015 21.3171 14.684C21.2609 13.6289 20.9309 12.6969 20.255 12.0111C19.5757 11.3253 18.6505 10.9912 17.6007 10.9349Z" fill="#7C529E"/>
</svg>
