<svg width="33" height="34" viewBox="0 0 33 34" fill="none" xmlns="http://www.w3.org/2000/svg">
<path d="M29.2272 17C29.2272 16.609 29.2102 16.235 29.1763 15.844L32.3326 13.447C33.0114 12.937 33.198 11.985 32.7738 11.237L29.6005 5.746C29.397 5.38591 29.0679 5.11384 28.6764 4.98205C28.2849 4.85026 27.8585 4.86805 27.4793 5.032L23.8308 6.579C23.203 6.137 22.5412 5.746 21.8454 5.423L21.3533 1.496C21.2515 0.646 20.5218 0 19.6733 0H13.3437C12.4782 0 11.7485 0.646 11.6467 1.496L11.1546 5.423C10.4588 5.746 9.79703 6.137 9.16915 6.579L5.5207 5.032C4.7401 4.692 3.82375 4.998 3.39951 5.746L0.226201 11.254C-0.198038 12.002 -0.0113731 12.937 0.667409 13.464L3.82375 15.861C3.7534 16.6244 3.7534 17.3926 3.82375 18.156L0.667409 20.553C-0.0113731 21.063 -0.198038 22.015 0.226201 22.763L3.39951 28.254C3.82375 29.002 4.7401 29.308 5.5207 28.968L9.16915 27.421C9.79703 27.863 10.4588 28.254 11.1546 28.577L11.6467 32.504C11.7485 33.354 12.4782 34 13.3267 34H19.6563C20.5048 34 21.2345 33.354 21.3363 32.504L21.8284 28.577C22.5242 28.254 23.186 27.863 23.8139 27.421L27.4623 28.968C28.2429 29.308 29.1593 29.002 29.5835 28.254L32.7568 22.763C33.1811 22.015 32.9944 21.08 32.3156 20.553L29.1593 18.156C29.2102 17.765 29.2272 17.391 29.2272 17ZM16.5679 22.95C13.2928 22.95 10.6285 20.281 10.6285 17C10.6285 13.719 13.2928 11.05 16.5679 11.05C19.843 11.05 22.5072 13.719 22.5072 17C22.5072 20.281 19.843 22.95 16.5679 22.95Z" fill="#929292"/>
</svg>
