<svg width="33" height="32" viewBox="0 0 33 32" fill="none" xmlns="http://www.w3.org/2000/svg">
<path d="M16.5 0C12.1249 0 7.92516 1.68675 4.83398 4.68625C1.73962 7.68694 0.000857149 11.7565 0 16C0 20.2417 1.74023 24.3142 4.83398 27.3137C7.92516 30.3132 12.1249 32 16.5 32C20.8751 32 25.0748 30.3132 28.166 27.3137C31.2598 24.3142 33 20.2417 33 16C33 11.7583 31.2598 7.68575 28.166 4.68625C25.0748 1.68675 20.8751 0 16.5 0Z" fill="#2AABEE"/>
<path d="M7.46891 15.8311C12.2797 13.7991 15.4869 12.4593 17.0905 11.8121C21.6744 9.96381 22.6257 9.64281 23.247 9.63193C23.3837 9.62981 23.6879 9.66256 23.8864 9.81818C24.0514 9.94943 24.0978 10.1269 24.121 10.2516C24.1416 10.3761 24.17 10.6598 24.1468 10.8813C23.8993 13.4113 22.8242 19.5508 22.2777 22.3846C22.0482 23.5836 21.5919 23.9856 21.151 24.0248C20.192 24.1103 19.4649 23.4108 18.5368 22.8211C17.0853 21.8978 16.2655 21.3233 14.8552 20.4226C13.2259 19.3816 14.2829 18.8093 15.211 17.8743C15.4534 17.6296 19.6763 13.9058 19.7563 13.5681C19.7666 13.5258 19.7769 13.3683 19.6789 13.2853C19.5835 13.2021 19.4417 13.2306 19.3386 13.2531C19.1916 13.2851 16.8739 14.7721 12.3777 17.7138C11.7202 18.1523 11.1247 18.3661 10.5884 18.3548C10.0006 18.3426 8.86625 18.0318 8.0232 17.7663C6.99195 17.4406 6.16953 17.2683 6.24172 16.7151C6.27781 16.4271 6.68774 16.1323 7.46891 15.8311Z" fill="white"/>
</svg>
