<svg width="32" height="32" viewBox="0 0 32 32" fill="none" xmlns="http://www.w3.org/2000/svg">
<path d="M0.129527 15.6973C0.128773 18.4636 0.841048 21.1647 2.19543 23.5455L0 31.68L8.20324 29.4973C10.4721 30.7507 13.0143 31.4075 15.5976 31.4077H15.6044C24.1325 31.4077 31.0745 24.3654 31.0782 15.7096C31.0798 11.5153 29.4716 7.57119 26.5499 4.60387C23.6286 1.6368 19.7434 0.00191424 15.6038 0C7.07471 0 0.133174 7.04184 0.129653 15.6973" fill="#60D669"/>
<path d="M11.6005 8.89434C11.3005 8.2176 10.9847 8.20394 10.6993 8.19207C10.4657 8.18186 10.1986 8.18263 9.93174 8.18263C9.66463 8.18263 9.23066 8.2846 8.86383 8.69105C8.49662 9.09789 7.46191 10.081 7.46191 12.0807C7.46191 14.0804 8.89715 16.0129 9.09723 16.2843C9.29756 16.5553 11.868 20.7901 15.9389 22.4192C19.3222 23.7731 20.0107 23.5038 20.745 23.4359C21.4794 23.3683 23.1147 22.453 23.4484 21.5039C23.7822 20.555 23.7822 19.7416 23.6821 19.5716C23.582 19.4022 23.3149 19.3005 22.9144 19.0974C22.5138 18.8941 20.5447 17.9108 20.1776 17.7751C19.8104 17.6396 19.5434 17.572 19.2763 17.9789C19.0092 18.3853 18.2422 19.3005 18.0085 19.5716C17.7749 19.8433 17.5412 19.8771 17.1408 19.6738C16.74 19.4699 15.4501 19.0412 13.9198 17.6567C12.7292 16.5794 11.9253 15.249 11.6917 14.842C11.458 14.4357 11.6667 14.2154 11.8675 14.0129C12.0474 13.8308 12.2681 13.5383 12.4686 13.301C12.6683 13.0637 12.7349 12.8943 12.8685 12.6233C13.0022 12.352 12.9353 12.1146 12.8353 11.9113C12.7349 11.708 11.9566 9.69794 11.6005 8.89434Z" fill="white"/>
</svg>
