<svg width="34" height="43" viewBox="0 0 34 43" fill="none" xmlns="http://www.w3.org/2000/svg">
<path d="M3.76087 8.52128C3.39587 8.74758 3.21612 9.18166 3.31428 9.59975L4.44622 14.421C4.48159 14.5716 4.48151 14.7284 4.446 14.879L3.31552 19.6731C3.21669 20.0922 3.39728 20.5276 3.76379 20.7537L7.97174 23.3496C8.10537 23.4321 8.21771 23.5448 8.29966 23.6787L10.8725 27.8832C11.0978 28.2513 11.5339 28.4334 11.9541 28.3347L16.7714 27.2037C16.9218 27.1684 17.0782 27.1684 17.2286 27.2037L22.046 28.3347C22.4661 28.4334 22.9022 28.2513 23.1275 27.8832L25.7003 23.6787C25.7823 23.5448 25.8946 23.4321 26.0283 23.3496L30.2362 20.7537C30.6027 20.5276 30.7833 20.0922 30.6845 19.6731L29.554 14.879C29.5185 14.7284 29.5184 14.5716 29.5538 14.421L30.6857 9.59975C30.7839 9.18166 30.6041 8.74758 30.2391 8.52128L26.0504 5.92425C25.9186 5.84255 25.8076 5.73134 25.7262 5.59939L23.1299 1.39085C22.9032 1.02336 22.4662 0.842886 22.0463 0.94331L17.231 2.0948C17.0791 2.13111 16.9208 2.13136 16.7689 2.09552L11.9726 0.964531C11.5556 0.866186 11.1222 1.04448 10.8951 1.40784L8.27331 5.60272C8.19219 5.73252 8.08235 5.84197 7.95226 5.92263L3.76087 8.52128ZM17.025 24.75C14.3728 24.75 11.8293 23.6965 9.95393 21.8211C8.07857 19.9457 7.025 17.4022 7.025 14.75C7.025 12.0979 8.07857 9.55432 9.95393 7.67896C11.8293 5.80359 14.3728 4.75002 17.025 4.75002C22.525 4.75002 27 9.22502 27 14.725C27 20.275 22.525 24.75 17.025 24.75ZM16.975 22.25C12.825 22.25 9.5 18.9 9.5 14.75C9.5 10.625 12.825 7.25002 16.975 7.25002C21.125 7.25002 24.5 10.625 24.5 14.75C24.5 18.9 21.125 22.25 16.975 22.25ZM27.4421 26.5252C27.0592 25.8517 26.0889 25.8507 25.7045 26.5233L23.742 29.9577C23.524 30.3394 23.0822 30.5339 22.6534 30.437L20.0973 29.8594C19.2988 29.679 18.6337 30.4819 18.9595 31.2329L23.7502 42.2722C24.0693 43.0076 25.0808 43.0874 25.5112 42.411L27.7053 38.9632C27.8888 38.6747 28.207 38.5 28.5489 38.5H32.5312C33.298 38.5 33.7795 37.6724 33.4005 37.0058L27.4421 26.5252ZM6.44563 26.7219C6.83118 26.0437 7.81027 26.0485 8.18913 26.7305L10.0813 30.1364C10.2993 30.5287 10.7519 30.7277 11.1883 30.6232L13.8286 29.9911C14.6303 29.7991 15.3068 30.605 14.979 31.3613L10.2495 42.2711C9.93055 43.0068 8.91884 43.0868 8.48833 42.4103L6.29472 38.9632C6.11116 38.6747 5.79295 38.5 5.45105 38.5H1.46877C0.701936 38.5 0.220452 37.6725 0.599427 37.0058L6.44563 26.7219Z" fill="#929292"/>
</svg>
