<svg width="29" height="35" viewBox="0 0 29 35" fill="none" xmlns="http://www.w3.org/2000/svg">
<path d="M27.8022 3.07166C27.6499 2.96752 27.4747 2.90158 27.2915 2.87942C27.1082 2.85726 26.9224 2.87953 26.7496 2.94435L9.96009 9.35066C9.22903 9.62891 8.31553 9.7641 7.3771 9.7641C6.06853 9.76672 4.71272 9.49897 3.77166 9.1341C3.48601 9.02988 3.21162 8.89708 2.95266 8.73772C3.02747 8.70622 3.11016 8.6721 3.20728 8.63929L18.4756 2.81441L20.7502 3.67278V1.16328C20.7503 0.979166 20.7058 0.79776 20.6205 0.634568C20.5353 0.471376 20.4118 0.331249 20.2606 0.226159C20.1082 0.122118 19.933 0.0562418 19.7498 0.0340849C19.5666 0.0119279 19.3808 0.0341395 19.208 0.0988471L2.41978 6.50253C1.90003 6.69022 1.45772 6.91335 1.08103 7.2441C0.708282 7.56435 0.389345 8.09066 0.394595 8.67472C0.394595 8.69178 0.399845 8.71672 0.399845 8.71672V31.2733C0.399845 31.2838 0.395908 31.293 0.395908 31.2996C0.395908 31.3088 0.399845 31.3127 0.399845 31.3219V31.3442H0.40247C0.43922 32.1317 0.888095 32.6344 1.32122 32.9914C2.67703 34.0453 4.95422 34.6347 7.37578 34.6635C8.52422 34.6635 9.68841 34.5113 10.7673 34.1031L27.562 27.6955C27.7778 27.6139 27.9636 27.4684 28.0945 27.2785C28.2254 27.0885 28.2951 26.863 28.2944 26.6323V4.01141C28.2942 3.8272 28.2495 3.64575 28.164 3.48257C28.0786 3.31939 27.9549 3.17931 27.8035 3.07428L27.8022 3.07166ZM1.44459 12.4035C1.4946 12.5171 1.52564 12.6382 1.53647 12.7618L1.54041 12.8314C1.56141 13.1779 1.71103 13.3643 2.01684 13.632C3.04453 14.455 5.14322 15.0495 7.37578 15.0679C8.23332 15.0754 9.08743 14.9587 9.91153 14.7214V17.0708C9.06234 17.2598 8.20528 17.3425 7.36266 17.3425C5.16553 17.3083 3.07603 16.8792 1.44328 15.9604L1.44459 12.4035ZM7.36397 29.2718C5.16553 29.235 3.07603 28.8072 1.44459 27.8871V24.3263C1.49658 24.4406 1.5277 24.5633 1.53647 24.6885L1.54041 24.7581C1.56403 25.1072 1.71103 25.2923 2.01816 25.5613C3.04453 26.3817 5.14191 26.9788 7.37578 26.992C8.25516 26.992 9.11747 26.887 9.91153 26.6507V28.9975C9.07405 29.1817 8.21885 29.2733 7.36135 29.2705L7.36397 29.2718Z" fill="#929292"/>
</svg>
