<svg width="30" height="40" viewBox="0 0 30 40" fill="none" xmlns="http://www.w3.org/2000/svg">
<path fill-rule="evenodd" clip-rule="evenodd" d="M11.5827 7.3125C14.3952 7.375 16.666 9.66667 16.666 12.5C16.666 14.0625 15.9785 15.4375 14.8952 16.3958L16.1243 19.7708L18.0827 19.0625L18.791 21.0208L22.7077 19.6042L21.9994 17.6458L23.9577 16.9375L18.2493 1.25L16.291 1.95833L15.5827 0L11.666 1.41667L12.3743 3.375L10.416 4.10417L11.5827 7.3125ZM4.16667 35.4166C1.875 35.4166 0 37.2916 0 39.5833H29.1667C29.1667 37.2916 27.2917 35.4166 25 35.4166H16.6667V31.2499H22.9167C25.2083 31.2499 27.0833 29.3749 27.0833 27.0833H10.4167C6.95833 27.0833 4.16667 24.2916 4.16667 20.8333C4.16667 18.5624 5.39583 16.5833 7.20833 15.4999C6.60417 14.6458 6.25 13.6249 6.25 12.4999C6.25 12.0624 6.33333 11.6249 6.4375 11.2083C4.5342 11.998 2.90724 13.3334 1.76164 15.0462C0.616045 16.759 0.00308323 18.7726 0 20.8333C0 26.5833 4.66667 31.2499 10.4167 31.2499V35.4166H4.16667ZM14.583 12.5C14.583 14.2259 13.1839 15.625 11.458 15.625C9.73212 15.625 8.33301 14.2259 8.33301 12.5C8.33301 10.7741 9.73212 9.375 11.458 9.375C13.1839 9.375 14.583 10.7741 14.583 12.5Z" fill="#929292"/>
</svg>
