<svg xmlns="http://www.w3.org/2000/svg" xmlns:xlink="http://www.w3.org/1999/xlink"><defs><style>
    .sprite-symbol-usage {display: none;}
    .sprite-symbol-usage:target {display: inline;}
  </style><symbol viewBox="0 0 56 12" id="icon-arrow-max">
<path d="M55.9424 5.99991L50.1384 11.8052L49.1944 10.8626L53.3904 6.66658L-2.829e-07 6.66658L-2.24618e-07 5.33325L53.3904 5.33325L49.1944 1.13858L50.1384 0.19458L55.9424 5.99991Z" />
</symbol><symbol viewBox="0 0 18 12" id="icon-arrow-min">
<path d="M17.6094 5.80551L11.8054 0.000172587L10.8614 0.942839L15.0574 5.13884L4.14369e-05 5.13884V6.47217L15.0574 6.47217L10.8614 10.6668L11.8054 11.6108L17.6094 5.80551Z" />
</symbol><symbol viewBox="0 0 29 35" fill="none" id="icon-book">
<path d="M27.8022 3.07166C27.6499 2.96752 27.4747 2.90158 27.2915 2.87942C27.1082 2.85726 26.9224 2.87953 26.7496 2.94435L9.96009 9.35066C9.22903 9.62891 8.31553 9.7641 7.3771 9.7641C6.06853 9.76672 4.71272 9.49897 3.77166 9.1341C3.48601 9.02988 3.21162 8.89708 2.95266 8.73772C3.02747 8.70622 3.11016 8.6721 3.20728 8.63929L18.4756 2.81441L20.7502 3.67278V1.16328C20.7503 0.979166 20.7058 0.79776 20.6205 0.634568C20.5353 0.471376 20.4118 0.331249 20.2606 0.226159C20.1082 0.122118 19.933 0.0562418 19.7498 0.0340849C19.5666 0.0119279 19.3808 0.0341395 19.208 0.0988471L2.41978 6.50253C1.90003 6.69022 1.45772 6.91335 1.08103 7.2441C0.708282 7.56435 0.389345 8.09066 0.394595 8.67472C0.394595 8.69178 0.399845 8.71672 0.399845 8.71672V31.2733C0.399845 31.2838 0.395908 31.293 0.395908 31.2996C0.395908 31.3088 0.399845 31.3127 0.399845 31.3219V31.3442H0.40247C0.43922 32.1317 0.888095 32.6344 1.32122 32.9914C2.67703 34.0453 4.95422 34.6347 7.37578 34.6635C8.52422 34.6635 9.68841 34.5113 10.7673 34.1031L27.562 27.6955C27.7778 27.6139 27.9636 27.4684 28.0945 27.2785C28.2254 27.0885 28.2951 26.863 28.2944 26.6323V4.01141C28.2942 3.8272 28.2495 3.64575 28.164 3.48257C28.0786 3.31939 27.9549 3.17931 27.8035 3.07428L27.8022 3.07166ZM1.44459 12.4035C1.4946 12.5171 1.52564 12.6382 1.53647 12.7618L1.54041 12.8314C1.56141 13.1779 1.71103 13.3643 2.01684 13.632C3.04453 14.455 5.14322 15.0495 7.37578 15.0679C8.23332 15.0754 9.08743 14.9587 9.91153 14.7214V17.0708C9.06234 17.2598 8.20528 17.3425 7.36266 17.3425C5.16553 17.3083 3.07603 16.8792 1.44328 15.9604L1.44459 12.4035ZM7.36397 29.2718C5.16553 29.235 3.07603 28.8072 1.44459 27.8871V24.3263C1.49658 24.4406 1.5277 24.5633 1.53647 24.6885L1.54041 24.7581C1.56403 25.1072 1.71103 25.2923 2.01816 25.5613C3.04453 26.3817 5.14191 26.9788 7.37578 26.992C8.25516 26.992 9.11747 26.887 9.91153 26.6507V28.9975C9.07405 29.1817 8.21885 29.2733 7.36135 29.2705L7.36397 29.2718Z" fill="#929292" />
</symbol><symbol viewBox="0 0 34 38" fill="none" id="icon-houses">
<path d="M26.6635 16.771C26.5272 16.661 26.3573 16.601 26.1821 16.601C26.0069 16.601 25.8369 16.661 25.7006 16.771L18.8159 22.3156C18.7276 22.3868 18.6563 22.477 18.6075 22.5794C18.5587 22.6818 18.5335 22.7939 18.5338 22.9074V37.0908C18.5338 37.2965 18.6155 37.4939 18.761 37.6394C18.9065 37.7849 19.1039 37.8666 19.3097 37.8666H23.8913C24.097 37.8666 24.2944 37.7849 24.4399 37.6394C24.5854 37.4939 24.6671 37.2965 24.6671 37.0908V31.7333H27.7338V37.0908C27.7338 37.2965 27.8155 37.4939 27.961 37.6394C28.1065 37.7849 28.3039 37.8666 28.5097 37.8666H33.0913C33.297 37.8666 33.4944 37.7849 33.6399 37.6394C33.7854 37.4939 33.8671 37.2965 33.8671 37.0908V22.9013C33.8693 22.7838 33.8444 22.6674 33.7944 22.5611C33.7445 22.4547 33.6707 22.3613 33.5789 22.288L26.6635 16.771ZM24.6671 28.6666H21.6005V25.6H24.6671V28.6666ZM30.8005 28.6666H27.7338V25.6H30.8005V28.6666ZM11.5111 0.499305C11.4406 0.393032 11.3449 0.305856 11.2326 0.245551C11.1202 0.185246 10.9947 0.153687 10.8671 0.153687C10.7396 0.153687 10.6141 0.185246 10.5017 0.245551C10.3893 0.305856 10.2936 0.393032 10.2231 0.499305L0.262595 13.137C0.17819 13.2643 0.133371 13.4137 0.133795 13.5664V37.0908C0.133392 37.1923 0.152981 37.2928 0.191446 37.3867C0.22991 37.4807 0.286496 37.5661 0.357972 37.6381C0.429449 37.7102 0.514416 37.7674 0.608023 37.8066C0.70163 37.8458 0.802043 37.8662 0.903528 37.8666H8.57019C8.77356 37.8642 8.96776 37.7817 9.11071 37.6371C9.25365 37.4924 9.33381 37.2972 9.33379 37.0938V31.7333H12.4005V37.0938C12.4005 37.2988 12.4819 37.4954 12.6268 37.6403C12.7717 37.7852 12.9683 37.8666 13.1733 37.8666H15.4671V19.4666C15.467 19.2363 15.5188 19.0089 15.6186 18.8013C15.7184 18.5937 15.8637 18.4113 16.0437 18.2676L21.6005 13.3333C21.6005 13.18 11.5111 0.499305 11.5111 0.499305ZM6.26713 25.6H3.20046V22.5333H6.26713V25.6ZM6.26713 16.4H3.20046V13.3333H6.26713V16.4ZM12.4005 25.6H9.33379V22.5333H12.4005V25.6ZM12.4005 16.4H9.33379V13.3333H12.4005V16.4Z" fill="#929292" />
</symbol><symbol viewBox="0 0 923 252" fill="none" id="icon-intro-underlay">
<path d="M864 30C864 13.4315 850.569 0 834 0H90.1836C73.615 0 60.1836 13.4315 60.1836 30V192C60.1836 220.284 60.1836 234.426 51.3968 243.213C42.61 252 28.4679 252 0.183594 252H922.167C895.101 251.996 881.382 251.808 872.787 243.213C864 234.427 864 220.284 864 192V30Z" fill="#EFEFEF" />
</symbol><symbol viewBox="0 0 40 28" fill="none" id="icon-lorry">
<path d="M34 7H28.75V0H0.75V22.75H4.25C4.25 25.655 6.595 28 9.5 28C12.405 28 14.75 25.655 14.75 22.75H25.25C25.25 25.655 27.595 28 30.5 28C33.405 28 35.75 25.655 35.75 22.75H39.25V14L34 7ZM9.5 25.375C8.0475 25.375 6.875 24.2025 6.875 22.75C6.875 21.2975 8.0475 20.125 9.5 20.125C10.9525 20.125 12.125 21.2975 12.125 22.75C12.125 24.2025 10.9525 25.375 9.5 25.375ZM25.25 5.25H21.75V17.5H18.25V5.25H14.75V17.5H11.25V5.25H7.75V17.5H4.25V3.5H25.25V5.25ZM30.5 25.375C29.0475 25.375 27.875 24.2025 27.875 22.75C27.875 21.2975 29.0475 20.125 30.5 20.125C31.9525 20.125 33.125 21.2975 33.125 22.75C33.125 24.2025 31.9525 25.375 30.5 25.375ZM28.75 14V9.625H33.125L36.555 14H28.75Z" fill="#929292" />
</symbol><symbol viewBox="0 0 34 43" fill="none" id="icon-medal">
<path d="M3.76087 8.52128C3.39587 8.74758 3.21612 9.18166 3.31428 9.59975L4.44622 14.421C4.48159 14.5716 4.48151 14.7284 4.446 14.879L3.31552 19.6731C3.21669 20.0922 3.39728 20.5276 3.76379 20.7537L7.97174 23.3496C8.10537 23.4321 8.21771 23.5448 8.29966 23.6787L10.8725 27.8832C11.0978 28.2513 11.5339 28.4334 11.9541 28.3347L16.7714 27.2037C16.9218 27.1684 17.0782 27.1684 17.2286 27.2037L22.046 28.3347C22.4661 28.4334 22.9022 28.2513 23.1275 27.8832L25.7003 23.6787C25.7823 23.5448 25.8946 23.4321 26.0283 23.3496L30.2362 20.7537C30.6027 20.5276 30.7833 20.0922 30.6845 19.6731L29.554 14.879C29.5185 14.7284 29.5184 14.5716 29.5538 14.421L30.6857 9.59975C30.7839 9.18166 30.6041 8.74758 30.2391 8.52128L26.0504 5.92425C25.9186 5.84255 25.8076 5.73134 25.7262 5.59939L23.1299 1.39085C22.9032 1.02336 22.4662 0.842886 22.0463 0.94331L17.231 2.0948C17.0791 2.13111 16.9208 2.13136 16.7689 2.09552L11.9726 0.964531C11.5556 0.866186 11.1222 1.04448 10.8951 1.40784L8.27331 5.60272C8.19219 5.73252 8.08235 5.84197 7.95226 5.92263L3.76087 8.52128ZM17.025 24.75C14.3728 24.75 11.8293 23.6965 9.95393 21.8211C8.07857 19.9457 7.025 17.4022 7.025 14.75C7.025 12.0979 8.07857 9.55432 9.95393 7.67896C11.8293 5.80359 14.3728 4.75002 17.025 4.75002C22.525 4.75002 27 9.22502 27 14.725C27 20.275 22.525 24.75 17.025 24.75ZM16.975 22.25C12.825 22.25 9.5 18.9 9.5 14.75C9.5 10.625 12.825 7.25002 16.975 7.25002C21.125 7.25002 24.5 10.625 24.5 14.75C24.5 18.9 21.125 22.25 16.975 22.25ZM27.4421 26.5252C27.0592 25.8517 26.0889 25.8507 25.7045 26.5233L23.742 29.9577C23.524 30.3394 23.0822 30.5339 22.6534 30.437L20.0973 29.8594C19.2988 29.679 18.6337 30.4819 18.9595 31.2329L23.7502 42.2722C24.0693 43.0076 25.0808 43.0874 25.5112 42.411L27.7053 38.9632C27.8888 38.6747 28.207 38.5 28.5489 38.5H32.5312C33.298 38.5 33.7795 37.6724 33.4005 37.0058L27.4421 26.5252ZM6.44563 26.7219C6.83118 26.0437 7.81027 26.0485 8.18913 26.7305L10.0813 30.1364C10.2993 30.5287 10.7519 30.7277 11.1883 30.6232L13.8286 29.9911C14.6303 29.7991 15.3068 30.605 14.979 31.3613L10.2495 42.2711C9.93055 43.0068 8.91884 43.0868 8.48833 42.4103L6.29472 38.9632C6.11116 38.6747 5.79295 38.5 5.45105 38.5H1.46877C0.701936 38.5 0.220452 37.6725 0.599427 37.0058L6.44563 26.7219Z" fill="#929292" />
</symbol><symbol viewBox="0 0 30 40" fill="none" id="icon-microscope">
<path fill-rule="evenodd" clip-rule="evenodd" d="M11.5827 7.3125C14.3952 7.375 16.666 9.66667 16.666 12.5C16.666 14.0625 15.9785 15.4375 14.8952 16.3958L16.1243 19.7708L18.0827 19.0625L18.791 21.0208L22.7077 19.6042L21.9994 17.6458L23.9577 16.9375L18.2493 1.25L16.291 1.95833L15.5827 0L11.666 1.41667L12.3743 3.375L10.416 4.10417L11.5827 7.3125ZM4.16667 35.4166C1.875 35.4166 0 37.2916 0 39.5833H29.1667C29.1667 37.2916 27.2917 35.4166 25 35.4166H16.6667V31.2499H22.9167C25.2083 31.2499 27.0833 29.3749 27.0833 27.0833H10.4167C6.95833 27.0833 4.16667 24.2916 4.16667 20.8333C4.16667 18.5624 5.39583 16.5833 7.20833 15.4999C6.60417 14.6458 6.25 13.6249 6.25 12.4999C6.25 12.0624 6.33333 11.6249 6.4375 11.2083C4.5342 11.998 2.90724 13.3334 1.76164 15.0462C0.616045 16.759 0.00308323 18.7726 0 20.8333C0 26.5833 4.66667 31.2499 10.4167 31.2499V35.4166H4.16667ZM14.583 12.5C14.583 14.2259 13.1839 15.625 11.458 15.625C9.73212 15.625 8.33301 14.2259 8.33301 12.5C8.33301 10.7741 9.73212 9.375 11.458 9.375C13.1839 9.375 14.583 10.7741 14.583 12.5Z" fill="#929292" />
</symbol><symbol viewBox="0 0 40 36" fill="none" id="icon-pig">
<path fill-rule="evenodd" clip-rule="evenodd" d="M19 2.17835e-08C20.9661 0.000151496 22.8781 0.643812 24.444 1.83268C26.0098 3.02155 27.1436 4.69027 27.672 6.584L27.776 6.994L31.516 6.06C31.7894 5.99196 32.074 5.98243 32.3513 6.03205C32.6286 6.08166 32.8923 6.1893 33.1251 6.3479C33.3579 6.50651 33.5546 6.71251 33.7023 6.95241C33.8499 7.19231 33.9453 7.4607 33.982 7.74L34 8V11.62C35.1275 12.7011 36.0516 13.976 36.728 15.384L37.004 16H38C38.4899 16.0001 38.9627 16.1799 39.3287 16.5054C39.6948 16.8309 39.9287 17.2795 39.986 17.766L40 18V24C40 24.3292 39.9188 24.6533 39.7636 24.9436C39.6083 25.2338 39.3838 25.4813 39.11 25.664L38.894 25.788L36.558 26.958C35.6017 28.8082 34.2164 30.4026 32.518 31.608L32 31.956V34C31.9999 34.4899 31.8201 34.9627 31.4946 35.3287C31.169 35.6948 30.7205 35.9287 30.234 35.986L30 36H24C23.5101 35.9999 23.0373 35.8201 22.6713 35.4946C22.3052 35.169 22.0713 34.7205 22.014 34.234L22 34H20C19.9999 34.4899 19.8201 34.9627 19.4946 35.3287C19.1691 35.6948 18.7205 35.9287 18.234 35.986L18 36H12C11.5101 35.9999 11.0373 35.8201 10.6713 35.4946C10.3052 35.169 10.0713 34.7205 10.014 34.234L10 34V31.956C8.55517 31.0323 7.30711 29.8322 6.32754 28.4246C5.34797 27.017 4.65621 25.4298 4.292 23.754C3.11265 23.403 2.06963 22.6981 1.30411 21.7348C0.538583 20.7714 0.0875296 19.5961 0.0120001 18.368L0 18V17C0.000565415 16.4902 0.195758 15.9999 0.545697 15.6293C0.895635 15.2586 1.37391 15.0355 1.88279 15.0057C2.39167 14.9758 2.89276 15.1413 3.28367 15.4685C3.67457 15.7957 3.92579 16.2598 3.986 16.766L4 17V18C4 18.296 4.064 18.578 4.18 18.83C4.48527 17.0294 5.16626 15.3133 6.17866 13.7933C7.19105 12.2734 8.51216 10.9836 10.056 10.008C9.9141 8.74897 10.0396 7.47416 10.4244 6.26699C10.8091 5.05982 11.4444 3.94748 12.2887 3.00277C13.133 2.05805 14.1672 1.30224 15.3237 0.784791C16.4803 0.267341 17.733 -8.81254e-05 19 2.17835e-08ZM28 16C27.4696 16 26.9609 16.2107 26.5858 16.5858C26.2107 16.9609 26 17.4696 26 18C26 18.5304 26.2107 19.0391 26.5858 19.4142C26.9609 19.7893 27.4696 20 28 20C28.5304 20 29.0391 19.7893 29.4142 19.4142C29.7893 19.0391 30 18.5304 30 18C30 17.4696 29.7893 16.9609 29.4142 16.5858C29.0391 16.2107 28.5304 16 28 16ZM19 4C17.7886 4 16.6184 4.4398 15.7068 5.23768C14.7953 6.03556 14.2044 7.13725 14.044 8.338C15.0132 8.11293 16.005 7.99952 17 8H23.754L23.894 7.966C23.6568 6.84392 23.0411 5.83748 22.1501 5.1154C21.2591 4.39333 20.1469 3.99952 19 4Z" fill="#929292" />
</symbol><symbol viewBox="0 0 33 34" fill="none" id="icon-settings">
<path d="M29.2272 17C29.2272 16.609 29.2102 16.235 29.1763 15.844L32.3326 13.447C33.0114 12.937 33.198 11.985 32.7738 11.237L29.6005 5.746C29.397 5.38591 29.0679 5.11384 28.6764 4.98205C28.2849 4.85026 27.8585 4.86805 27.4793 5.032L23.8308 6.579C23.203 6.137 22.5412 5.746 21.8454 5.423L21.3533 1.496C21.2515 0.646 20.5218 0 19.6733 0H13.3437C12.4782 0 11.7485 0.646 11.6467 1.496L11.1546 5.423C10.4588 5.746 9.79703 6.137 9.16915 6.579L5.5207 5.032C4.7401 4.692 3.82375 4.998 3.39951 5.746L0.226201 11.254C-0.198038 12.002 -0.0113731 12.937 0.667409 13.464L3.82375 15.861C3.7534 16.6244 3.7534 17.3926 3.82375 18.156L0.667409 20.553C-0.0113731 21.063 -0.198038 22.015 0.226201 22.763L3.39951 28.254C3.82375 29.002 4.7401 29.308 5.5207 28.968L9.16915 27.421C9.79703 27.863 10.4588 28.254 11.1546 28.577L11.6467 32.504C11.7485 33.354 12.4782 34 13.3267 34H19.6563C20.5048 34 21.2345 33.354 21.3363 32.504L21.8284 28.577C22.5242 28.254 23.186 27.863 23.8139 27.421L27.4623 28.968C28.2429 29.308 29.1593 29.002 29.5835 28.254L32.7568 22.763C33.1811 22.015 32.9944 21.08 32.3156 20.553L29.1593 18.156C29.2102 17.765 29.2272 17.391 29.2272 17ZM16.5679 22.95C13.2928 22.95 10.6285 20.281 10.6285 17C10.6285 13.719 13.2928 11.05 16.5679 11.05C19.843 11.05 22.5072 13.719 22.5072 17C22.5072 20.281 19.843 22.95 16.5679 22.95Z" fill="#929292" />
</symbol><symbol viewBox="0 0 263 96" fill="none" id="icon-slider-angle">
<path fill-rule="evenodd" clip-rule="evenodd" d="M49 35C38.2787 35 29 43.785 29 54.5063V56C29 74.8562 29 84.2843 23.1421 90.1421C18.5589 94.7254 11.7901 95.7226 0.0300042 95.9396C0.0135582 95.94 0 95.9534 0 95.9698V95.9698C0 95.9865 0.0135092 96 0.0301735 96H215C231.802 96 240.202 96 246.62 92.7302C252.265 89.854 256.854 85.2646 259.73 79.6197C263 73.2024 263 64.8016 263 48V0.00231743C263 0.00103462 262.999 0 262.998 0V0C262.996 0 262.995 0.00107001 262.995 0.00235016C262.95 15.5723 262.457 23.8269 257.142 29.1421C251.284 35 241.856 35 223 35H49V35Z" fill="#EFEFEF" />
</symbol><symbol viewBox="0 0 36 24" fill="none" id="icon-slider-arrow">
<path fill-rule="evenodd" clip-rule="evenodd" d="M35.8857 11.9999L24.2777 23.6106L22.3897 21.7253L30.7817 13.3333L0.667076 13.3333L0.667076 10.6666L30.7817 10.6666L22.3897 2.27728L24.2777 0.389282L35.8857 11.9999Z" fill="#4E4E4E" />
</symbol><symbol viewBox="0 0 968 78" fill="none" id="icon-slider-underlay">
<path d="M967.999 77.9975C967.999 77.9975 968 77.9981 968 77.9988C968 77.9995 967.999 78 967.999 78H0.0256348C0.0114746 78 0 77.9885 0 77.9744C0 77.9604 0.0115356 77.9489 0.0255737 77.9487C10.9152 77.7843 17.4497 77.0919 22.6586 74.1748C27.4858 71.4714 31.4715 67.4857 34.1749 62.6585C38 55.8283 38 46.7188 38 28.4999C38 12.7598 50.7598 0 66.4999 0H894.5C910.24 0 923 12.7599 923 28.5C923 46.7189 923 55.8284 926.825 62.6586C929.528 67.4858 933.514 71.4715 938.341 74.1749C944.584 77.6711 952.732 77.9717 967.999 77.9975Z" fill="#EFEFEF" />
</symbol><symbol viewBox="0 0 33 32" fill="none" id="icon-tg">
<path d="M16.5 0C12.1249 0 7.92516 1.68675 4.83398 4.68625C1.73962 7.68694 0.000857149 11.7565 0 16C0 20.2417 1.74023 24.3142 4.83398 27.3137C7.92516 30.3132 12.1249 32 16.5 32C20.8751 32 25.0748 30.3132 28.166 27.3137C31.2598 24.3142 33 20.2417 33 16C33 11.7583 31.2598 7.68575 28.166 4.68625C25.0748 1.68675 20.8751 0 16.5 0Z" fill="#2AABEE" />
<path d="M7.46891 15.8311C12.2797 13.7991 15.4869 12.4593 17.0905 11.8121C21.6744 9.96381 22.6257 9.64281 23.247 9.63193C23.3837 9.62981 23.6879 9.66256 23.8864 9.81818C24.0514 9.94943 24.0978 10.1269 24.121 10.2516C24.1416 10.3761 24.17 10.6598 24.1468 10.8813C23.8993 13.4113 22.8242 19.5508 22.2777 22.3846C22.0482 23.5836 21.5919 23.9856 21.151 24.0248C20.192 24.1103 19.4649 23.4108 18.5368 22.8211C17.0853 21.8978 16.2655 21.3233 14.8552 20.4226C13.2259 19.3816 14.2829 18.8093 15.211 17.8743C15.4534 17.6296 19.6763 13.9058 19.7563 13.5681C19.7666 13.5258 19.7769 13.3683 19.6789 13.2853C19.5835 13.2021 19.4417 13.2306 19.3386 13.2531C19.1916 13.2851 16.8739 14.7721 12.3777 17.7138C11.7202 18.1523 11.1247 18.3661 10.5884 18.3548C10.0006 18.3426 8.86625 18.0318 8.0232 17.7663C6.99195 17.4406 6.16953 17.2683 6.24172 16.7151C6.27781 16.4271 6.68774 16.1323 7.46891 15.8311Z" fill="white" />
</symbol><symbol viewBox="0 0 33 36" fill="none" id="icon-viber">
<path fill-rule="evenodd" clip-rule="evenodd" d="M24.886 0.927518C19.3629 -0.309172 13.6354 -0.309172 8.11233 0.927518L7.51722 1.0594C5.96365 1.40733 4.53677 2.17987 3.39511 3.29118C2.25344 4.4025 1.44168 5.80909 1.05001 7.3547C-0.350002 12.8807 -0.350002 18.6695 1.05001 24.1955C1.42353 25.6695 2.1795 27.0185 3.24126 28.1055C4.30303 29.1925 5.63285 29.979 7.09591 30.3853L7.91221 35.2668C7.93827 35.4218 8.00533 35.567 8.10642 35.6872C8.20752 35.8074 8.33894 35.8983 8.487 35.9504C8.63506 36.0024 8.79435 36.0138 8.94829 35.9832C9.10222 35.9527 9.24517 35.8814 9.36224 35.7767L14.1565 31.4808C17.7554 31.7008 21.3673 31.4125 24.886 30.6244L25.4829 30.4925C27.0365 30.1446 28.4633 29.3721 29.605 28.2608C30.7467 27.1495 31.5584 25.7429 31.9501 24.1973C33.35 18.6712 33.35 12.8825 31.9501 7.35646C31.5583 5.81062 30.7463 4.40388 29.6043 3.29254C28.4623 2.18121 27.035 1.4088 25.4811 1.06116L24.886 0.927518ZM9.59397 7.21226C9.2677 7.16469 8.93502 7.23047 8.65127 7.39866H8.62669C7.96838 7.78552 7.37503 8.27262 6.86945 8.84587C6.44813 9.33297 6.21992 9.82534 6.16023 10.3001C6.12512 10.5815 6.1497 10.8663 6.23221 11.1354L6.2638 11.153C6.73779 12.5474 7.35572 13.8891 8.11058 15.1517C9.08391 16.9251 10.2817 18.5652 11.6742 20.0315L11.7164 20.0912L11.7831 20.1405L11.8234 20.188L11.8726 20.2302C13.3415 21.6293 14.9826 22.8348 16.7564 23.8174C18.7839 24.9235 20.0145 25.4458 20.7536 25.6638V25.6744C20.9695 25.7412 21.1661 25.7711 21.3645 25.7711C21.9939 25.7245 22.5897 25.4682 23.0568 25.0431C23.6273 24.5366 24.1101 23.9405 24.4858 23.2776V23.2653C24.8386 22.597 24.7192 21.9675 24.2102 21.5402C23.1876 20.6452 22.0818 19.8503 20.9081 19.1663C20.1216 18.739 19.3229 18.9975 18.9999 19.4301L18.31 20.3023C17.9554 20.7348 17.3128 20.675 17.3128 20.675L17.2953 20.6856C12.5011 19.46 11.2213 14.5978 11.2213 14.5978C11.2213 14.5978 11.1616 13.9366 11.6058 13.599L12.4695 12.9026C12.8837 12.565 13.1716 11.7667 12.7275 10.9789C12.0492 9.80206 11.2572 8.69478 10.3629 7.67298C10.1678 7.4325 9.89427 7.26872 9.59045 7.2105L9.59397 7.21226ZM17.6938 5.09859C17.461 5.09859 17.2377 5.19122 17.0731 5.35611C16.9085 5.521 16.816 5.74464 16.816 5.97782C16.816 6.21101 16.9085 6.43464 17.0731 6.59953C17.2377 6.76442 17.461 6.85705 17.6938 6.85705C19.9145 6.85705 21.7577 7.5833 23.2166 8.976C23.9661 9.73741 24.5507 10.6395 24.9334 11.6278C25.3179 12.6178 25.4934 13.6746 25.4478 14.7332C25.4429 14.8487 25.4608 14.964 25.5005 15.0725C25.5401 15.181 25.6007 15.2807 25.6788 15.3657C25.8365 15.5375 26.0559 15.6396 26.2887 15.6494C26.5214 15.6592 26.7486 15.5759 26.9201 15.418C27.0916 15.26 27.1935 15.0402 27.2033 14.8071C27.2577 13.5049 27.0419 12.2056 26.5695 10.9912C26.0951 9.77106 25.3757 8.66144 24.4559 7.73101L24.4384 7.71342C22.6285 5.98134 20.3376 5.09859 17.6938 5.09859ZM17.6341 7.9895C17.4013 7.9895 17.178 8.08214 17.0134 8.24702C16.8488 8.41191 16.7564 8.63555 16.7564 8.86873C16.7564 9.10192 16.8488 9.32556 17.0134 9.49044C17.178 9.65533 17.4013 9.74796 17.6341 9.74796H17.6639C19.2649 9.86227 20.4306 10.3968 21.2469 11.2743C22.0843 12.1782 22.5179 13.3018 22.4845 14.691C22.4792 14.9242 22.5665 15.15 22.7273 15.3186C22.8881 15.4873 23.1093 15.5851 23.3421 15.5905C23.5749 15.5958 23.8002 15.5083 23.9686 15.3472C24.137 15.1861 24.2346 14.9646 24.24 14.7314C24.2821 12.9079 23.6958 11.3341 22.5337 10.0786V10.075C21.3452 8.7984 19.7144 8.12315 17.7517 7.99126L17.7219 7.98774L17.6341 7.9895ZM17.6007 10.9349C17.4833 10.9245 17.3649 10.938 17.2528 10.9744C17.1406 11.0109 17.0369 11.0696 16.9479 11.1471C16.8589 11.2245 16.7864 11.3192 16.7347 11.4254C16.683 11.5315 16.6532 11.647 16.647 11.765C16.6409 11.883 16.6586 12.001 16.699 12.1119C16.7393 12.2229 16.8017 12.3246 16.8821 12.4109C16.9626 12.4972 17.0597 12.5664 17.1675 12.6144C17.2752 12.6623 17.3916 12.688 17.5095 12.6899C18.2433 12.7286 18.712 12.9501 19.0069 13.2473C19.3036 13.5462 19.5248 14.0263 19.5651 14.7772C19.5673 14.8952 19.5932 15.0115 19.6412 15.1193C19.6893 15.227 19.7585 15.324 19.8447 15.4044C19.9309 15.4848 20.0324 15.547 20.1432 15.5873C20.2539 15.6275 20.3716 15.6451 20.4893 15.6388C20.6069 15.6326 20.7221 15.6026 20.828 15.5508C20.9338 15.499 21.0282 15.4264 21.1054 15.3373C21.1827 15.2482 21.2412 15.1445 21.2776 15.0322C21.314 14.92 21.3274 14.8015 21.3171 14.684C21.2609 13.6289 20.9309 12.6969 20.255 12.0111C19.5757 11.3253 18.6505 10.9912 17.6007 10.9349Z" fill="#7C529E" />
</symbol><symbol viewBox="0 0 32 32" fill="none" id="icon-wa">
<path d="M0.129527 15.6973C0.128773 18.4636 0.841048 21.1647 2.19543 23.5455L0 31.68L8.20324 29.4973C10.4721 30.7507 13.0143 31.4075 15.5976 31.4077H15.6044C24.1325 31.4077 31.0745 24.3654 31.0782 15.7096C31.0798 11.5153 29.4716 7.57119 26.5499 4.60387C23.6286 1.6368 19.7434 0.00191424 15.6038 0C7.07471 0 0.133174 7.04184 0.129653 15.6973" fill="#60D669" />
<path d="M11.6005 8.89434C11.3005 8.2176 10.9847 8.20394 10.6993 8.19207C10.4657 8.18186 10.1986 8.18263 9.93174 8.18263C9.66463 8.18263 9.23066 8.2846 8.86383 8.69105C8.49662 9.09789 7.46191 10.081 7.46191 12.0807C7.46191 14.0804 8.89715 16.0129 9.09723 16.2843C9.29756 16.5553 11.868 20.7901 15.9389 22.4192C19.3222 23.7731 20.0107 23.5038 20.745 23.4359C21.4794 23.3683 23.1147 22.453 23.4484 21.5039C23.7822 20.555 23.7822 19.7416 23.6821 19.5716C23.582 19.4022 23.3149 19.3005 22.9144 19.0974C22.5138 18.8941 20.5447 17.9108 20.1776 17.7751C19.8104 17.6396 19.5434 17.572 19.2763 17.9789C19.0092 18.3853 18.2422 19.3005 18.0085 19.5716C17.7749 19.8433 17.5412 19.8771 17.1408 19.6738C16.74 19.4699 15.4501 19.0412 13.9198 17.6567C12.7292 16.5794 11.9253 15.249 11.6917 14.842C11.458 14.4357 11.6667 14.2154 11.8675 14.0129C12.0474 13.8308 12.2681 13.5383 12.4686 13.301C12.6683 13.0637 12.7349 12.8943 12.8685 12.6233C13.0022 12.352 12.9353 12.1146 12.8353 11.9113C12.7349 11.708 11.9566 9.69794 11.6005 8.89434Z" fill="white" />
</symbol></defs><use id="icon-arrow-max-usage" xlink:href="#icon-arrow-max" class="sprite-symbol-usage" /><use id="icon-arrow-min-usage" xlink:href="#icon-arrow-min" class="sprite-symbol-usage" /><use id="icon-book-usage" xlink:href="#icon-book" class="sprite-symbol-usage" /><use id="icon-houses-usage" xlink:href="#icon-houses" class="sprite-symbol-usage" /><use id="icon-intro-underlay-usage" xlink:href="#icon-intro-underlay" class="sprite-symbol-usage" /><use id="icon-lorry-usage" xlink:href="#icon-lorry" class="sprite-symbol-usage" /><use id="icon-medal-usage" xlink:href="#icon-medal" class="sprite-symbol-usage" /><use id="icon-microscope-usage" xlink:href="#icon-microscope" class="sprite-symbol-usage" /><use id="icon-pig-usage" xlink:href="#icon-pig" class="sprite-symbol-usage" /><use id="icon-settings-usage" xlink:href="#icon-settings" class="sprite-symbol-usage" /><use id="icon-slider-angle-usage" xlink:href="#icon-slider-angle" class="sprite-symbol-usage" /><use id="icon-slider-arrow-usage" xlink:href="#icon-slider-arrow" class="sprite-symbol-usage" /><use id="icon-slider-underlay-usage" xlink:href="#icon-slider-underlay" class="sprite-symbol-usage" /><use id="icon-tg-usage" xlink:href="#icon-tg" class="sprite-symbol-usage" /><use id="icon-viber-usage" xlink:href="#icon-viber" class="sprite-symbol-usage" /><use id="icon-wa-usage" xlink:href="#icon-wa" class="sprite-symbol-usage" /></svg>